<?xml version="1.0" encoding="UTF-8" standalone="no"?>
<svg
   xmlns:dc="http://purl.org/dc/elements/1.1/"
   xmlns:cc="http://creativecommons.org/ns#"
   xmlns:rdf="http://www.w3.org/1999/02/22-rdf-syntax-ns#"
   xmlns:svg="http://www.w3.org/2000/svg"
   xmlns="http://www.w3.org/2000/svg"
   xmlns:xlink="http://www.w3.org/1999/xlink"
   xmlns:sodipodi="http://sodipodi.sourceforge.net/DTD/sodipodi-0.dtd"
   xmlns:inkscape="http://www.inkscape.org/namespaces/inkscape"
   width="162mm"
   height="162mm"
   viewBox="0 0 5400 5400"
   version="1.1"
   id="svg33"
   sodipodi:docname="harbour.svg"
   inkscape:version="0.92.5 (2060ec1f9f, 2020-04-08)">
  <metadata
     id="metadata37">
    <rdf:RDF>
      <cc:Work
         rdf:about="">
        <dc:format>image/svg+xml</dc:format>
        <dc:type
           rdf:resource="http://purl.org/dc/dcmitype/StillImage" />
      </cc:Work>
    </rdf:RDF>
  </metadata>
  <sodipodi:namedview
     pagecolor="#ffffff"
     bordercolor="#666666"
     borderopacity="1"
     objecttolerance="10"
     gridtolerance="10"
     guidetolerance="10"
     inkscape:pageopacity="0"
     inkscape:pageshadow="2"
     inkscape:window-width="1848"
     inkscape:window-height="1016"
     id="namedview35"
     showgrid="false"
     inkscape:zoom="1.3008681"
     inkscape:cx="168.87293"
     inkscape:cy="107.39033"
     inkscape:window-x="72"
     inkscape:window-y="27"
     inkscape:window-maximized="1"
     inkscape:current-layer="svg33" />
  <defs
     id="defs4">
    <style
       id="style2"><![CDATA[
    .str0 {stroke:#2B2A29;stroke-width:7.62;stroke-miterlimit:22.9256}
    .str1 {stroke:#2B2A29;stroke-width:310;stroke-miterlimit:22.9256}
    .str2 {stroke:#2B2A29;stroke-width:7.62;stroke-miterlimit:22.9256}
    .fil0 {fill:#46C2B0}
    .fil1 {fill:#FEFEFE}
    .fil2 {fill:#2B2A29}
    .fil3 {fill:none}
    .fil4 {fill:#2B2A29;fill-rule:nonzero}
    .fil5 {fill:none;fill-rule:nonzero}
   ]]></style>
    <linearGradient
       id="linearGradient6465">
      <stop
         style="stop-color:white;stop-opacity:1;"
         offset="0"
         id="stop6467" />
      <stop
         style="stop-color:#bebebe;stop-opacity:1;"
         offset="1"
         id="stop6469" />
    </linearGradient>
    <linearGradient
       id="linearGradient6441">
      <stop
         id="stop6443"
         offset="0"
         style="stop-color:#2b5e82;stop-opacity:1;" />
      <stop
         id="stop6445"
         offset="1"
         style="stop-color:#cadfed;stop-opacity:1;" />
    </linearGradient>
    <linearGradient
       id="linearGradient5539">
      <stop
         id="stop5541"
         offset="0"
         style="stop-color:black;stop-opacity:1;" />
      <stop
         id="stop5543"
         offset="1"
         style="stop-color:black;stop-opacity:1;" />
    </linearGradient>
    <linearGradient
       id="linearGradient4084">
      <stop
         id="stop4086"
         offset="0"
         style="stop-color:black;stop-opacity:1;" />
      <stop
         id="stop4088"
         offset="1"
         style="stop-color:#464646;stop-opacity:1;" />
    </linearGradient>
    <linearGradient
       id="linearGradient2887">
      <stop
         style="stop-color:#9d9d9d;stop-opacity:1;"
         offset="0"
         id="stop2889" />
      <stop
         style="stop-color:#d9d9d9;stop-opacity:1;"
         offset="1"
         id="stop2891" />
    </linearGradient>
    <linearGradient
       id="linearGradient2853">
      <stop
         style="stop-color:white;stop-opacity:1;"
         offset="0"
         id="stop2855" />
      <stop
         style="stop-color:#dedede;stop-opacity:1;"
         offset="1"
         id="stop2857" />
    </linearGradient>
    <linearGradient
       id="linearGradient2826">
      <stop
         id="stop2828"
         offset="0"
         style="stop-color:white;stop-opacity:1;" />
      <stop
         id="stop2830"
         offset="1"
         style="stop-color:white;stop-opacity:0;" />
    </linearGradient>
    <linearGradient
       y2="627.35382"
       x2="363.54575"
       y1="627.35382"
       x1="348.58267"
       gradientUnits="userSpaceOnUse"
       id="linearGradient2875"
       xlink:href="#linearGradient2853"
       inkscape:collect="always" />
    <linearGradient
       gradientUnits="userSpaceOnUse"
       y2="706.79858"
       x2="-65.983803"
       y1="484.28513"
       x1="-65.983803"
       id="linearGradient6447"
       xlink:href="#linearGradient6441"
       inkscape:collect="always" />
    <linearGradient
       gradientUnits="userSpaceOnUse"
       y2="198.5399"
       x2="1096.9532"
       y1="817.21539"
       x1="670.34186"
       id="linearGradient6455"
       xlink:href="#linearGradient6441"
       inkscape:collect="always" />
    <linearGradient
       gradientUnits="userSpaceOnUse"
       y2="1104.9915"
       x2="299.63205"
       y1="975.60553"
       x1="321.61545"
       id="linearGradient6463"
       xlink:href="#linearGradient6465"
       inkscape:collect="always" />
    <radialGradient
       gradientUnits="userSpaceOnUse"
       gradientTransform="matrix(-1.79031,0.315757,-0.317459,-1.799969,1430.878,1857.86)"
       r="86.883537"
       fy="745.23834"
       fx="446.21426"
       cy="745.23834"
       cx="446.21426"
       id="radialGradient6487"
       xlink:href="#linearGradient6465"
       inkscape:collect="always" />
  </defs>
  <g
     id="g31">
    <circle
       class="fil0"
       cx="2771.74"
       cy="2700"
       r="2349.26"
       id="circle6" />
    <path
       class="fil1"
       d="M4850.02 1649.43c158.36,316.15 247.6,672.91 247.6,1050.57 0,275.95 -47.73,540.73 -135.12,786.69l-4428.27 0c-87.39,-245.96 -135.13,-510.74 -135.13,-786.69 0,-377.66 89.25,-734.42 247.6,-1050.57l4203.32 0z"
       id="path8" />
    <polygon
       class="fil2 str0"
       points="672.18,1344.07 4817.99,1344.07 4817.99,1649.43 672.18,1649.43 "
       id="polygon10" />
    <polygon
       class="fil2"
       points="533.47,3422.45 5026.75,3422.45 5026.75,3727.8 533.47,3727.8 "
       id="polygon12" />
    <circle
       class="fil3 str1"
       cx="2750"
       cy="2700"
       r="2390.19"
       id="circle14" />
    <polygon
       class="fil4"
       points="829.72,2950.12 829.72,2292.96 912.55,2292.96 912.55,2570 1170.26,2570 1170.26,2292.96 1253.1,2292.96 1253.1,2950.12 1170.26,2950.12 1170.26,2643.63 912.55,2643.63 912.55,2950.12 "
       id="polygon16" />
    <path
       id="1"
       class="fil4"
       d="M1543.94 2959.32c-48.48,0 -87.59,-11.96 -117.35,-35.89 -29.76,-23.93 -44.64,-60.13 -44.64,-108.61 0,-35.59 8.59,-65.19 25.77,-88.81 17.18,-23.63 42.49,-41.42 75.93,-53.39 33.44,-11.96 74.09,-18.56 121.95,-19.79l105.85 -2.76 0 -20.25c0,-44.17 -11.05,-74.39 -33.14,-90.65 -22.09,-16.26 -51.85,-24.39 -89.27,-24.39 -26.39,0 -51.55,3.37 -75.48,10.12 -23.93,6.75 -46.63,16.26 -68.11,28.53l-28.53 -62.58c23.32,-11.66 49.24,-21.79 77.78,-30.38 28.53,-8.59 61.51,-12.88 98.94,-12.88 61.97,0 109.68,13.96 143.12,41.87 33.44,27.92 50.16,71.34 50.16,130.24l0 330.42 -66.27 0 -9.2 -68.11 -3.68 0c-13.5,17.18 -28.38,31.45 -44.64,42.8 -16.26,11.35 -34.21,19.94 -53.85,25.77 -19.63,5.83 -41.41,8.74 -65.34,8.74zm13.8 -67.18c27.61,0 53.08,-5.07 76.39,-15.19 23.32,-10.13 42.04,-25.47 56.15,-46.02 14.11,-20.56 21.17,-46.48 21.17,-77.77l0 -44.18 -88.36 2.76c-39.27,1.23 -70.87,5.98 -94.8,14.27 -23.93,8.28 -41.26,19.63 -52,34.05 -10.74,14.42 -16.11,31.75 -16.11,52 0,28.23 8.9,48.63 26.69,61.21 17.8,12.58 41.42,18.87 70.87,18.87z" />
    <path
       id="2"
       class="fil4"
       d="M1926.81 2950.12l0 -55.22 150.03 -13.81 0 -355.27 -135.3 -11.96 0 -57.07 201.57 0 11.04 90.2 3.68 0c17.18,-32.52 36.05,-57.22 56.61,-74.09 20.55,-16.88 47.7,-25.31 81.45,-25.31 20.86,0 39.42,1.84 55.68,5.52 16.26,3.68 31.14,8.59 44.64,14.73l-22.09 72.71c-9.81,-5.53 -21.47,-10.28 -34.97,-14.27 -13.5,-3.99 -27.92,-5.98 -43.26,-5.98 -26.38,0 -49.7,8.28 -69.95,24.85 -20.25,16.57 -36.2,38.65 -47.86,66.27 -11.66,27.61 -17.49,57.98 -17.49,91.12l0 178.55 143.58 13.81 0 55.22 -377.36 0z" />
    <path
       id="3"
       class="fil4"
       d="M2724.79 2959.32c-36.2,0 -66.73,-7.21 -91.58,-21.63 -24.85,-14.41 -44.33,-31.14 -58.45,-50.16l-5.52 0 -7.36 62.59 -66.27 0 0 -699.5 80.08 0 0 169.36c0,17.18 -0.16,34.05 -0.47,50.62 -0.3,16.56 -1.38,33.44 -3.22,50.62l3.69 0c12.88,-19.64 31.6,-36.82 56.14,-51.54 24.54,-14.73 55.53,-22.09 92.96,-22.09 29.45,0 56.45,5.37 80.99,16.1 24.55,10.74 45.56,26.85 63.05,48.32 17.49,21.48 30.99,48.17 40.5,80.08 9.51,31.91 14.26,68.72 14.26,110.45 0,42.33 -4.75,79.46 -14.26,111.36 -9.51,31.91 -23.17,58.75 -40.96,80.54 -17.8,21.78 -38.81,38.04 -63.05,48.78 -24.23,10.73 -51.08,16.1 -80.53,16.1zm-15.65 -67.18c44.79,0 77.62,-16.26 98.48,-48.79 20.87,-32.52 31.3,-79.46 31.3,-140.81 0,-60.14 -10.43,-106.46 -31.3,-138.98 -20.86,-32.52 -53.99,-48.78 -99.4,-48.78 -42.34,0 -75.01,16.1 -98.02,48.32 -23.01,32.21 -34.51,78.08 -34.51,137.59 0,61.98 10.89,109.38 32.67,142.2 21.78,32.83 55.38,49.25 100.78,49.25z" />
    <path
       id="4"
       class="fil4"
       d="M3251.25 2959.32c-31.91,0 -61.67,-5.21 -89.28,-15.64 -27.61,-10.43 -51.7,-26.39 -72.25,-47.86 -20.56,-21.48 -36.51,-48.32 -47.86,-80.54 -11.35,-32.21 -17.03,-70.1 -17.03,-113.67 0,-57.06 9.67,-104.31 28.99,-141.74 19.33,-37.42 45.87,-65.5 79.62,-84.21 33.75,-18.72 72.09,-28.07 115.05,-28.07 42.95,0 81.6,9.35 115.97,28.07 34.36,18.71 61.51,46.94 81.45,84.67 19.94,37.74 29.91,85.75 29.91,144.05 0,42.95 -5.67,80.38 -17.02,112.28 -11.36,31.91 -27,58.45 -46.94,79.62 -19.95,21.17 -43.57,36.97 -70.87,47.4 -27.31,10.43 -57.22,15.64 -89.74,15.64zm-0.92 -67.18c31.9,0 58.29,-7.67 79.15,-23.01 20.86,-15.34 36.51,-37.28 46.94,-65.81 10.43,-28.53 15.65,-62.13 15.65,-100.78 0,-39.27 -5.22,-72.87 -15.65,-100.79 -10.43,-27.92 -26.23,-49.39 -47.4,-64.42 -21.17,-15.04 -47.71,-22.55 -79.61,-22.55 -47.86,0 -83.61,16.72 -107.23,50.16 -23.62,33.44 -35.43,79.3 -35.43,137.6 0,38.65 5.37,72.25 16.1,100.78 10.74,28.53 26.69,50.47 47.86,65.81 21.17,15.34 47.71,23.01 79.62,23.01z" />
    <path
       id="5"
       class="fil4"
       d="M3766.66 2959.32c-58.29,0 -101.39,-14.57 -129.31,-43.71 -27.92,-29.15 -41.88,-72.56 -41.88,-130.24l0 -328.58 82.83 0 0 315.69c0,39.27 8.13,69.03 24.39,89.28 16.26,20.25 44.34,30.38 84.22,30.38 34.36,0 61.36,-7.21 80.99,-21.63 19.64,-14.42 33.6,-35.13 41.88,-62.13 8.29,-27 12.43,-59.52 12.43,-97.56l0 -254.03 82.83 0 0 493.33 -66.27 0 -11.96 -66.27 -4.6 0c-11.66,18.41 -25.16,33.14 -40.5,44.18 -15.34,11.05 -32.52,19.02 -51.54,23.93 -19.02,4.91 -40.19,7.36 -63.51,7.36z" />
    <path
       id="6"
       class="fil4"
       d="M4135.73 2950.12l0 -55.22 150.03 -13.81 0 -355.27 -135.3 -11.96 0 -57.07 201.57 0 11.04 90.2 3.68 0c17.18,-32.52 36.05,-57.22 56.61,-74.09 20.55,-16.88 47.7,-25.31 81.45,-25.31 20.86,0 39.42,1.84 55.68,5.52 16.26,3.68 31.14,8.59 44.64,14.73l-22.09 72.71c-9.81,-5.53 -21.47,-10.28 -34.97,-14.27 -13.5,-3.99 -27.92,-5.98 -43.26,-5.98 -26.38,0 -49.7,8.28 -69.95,24.85 -20.25,16.57 -36.2,38.65 -47.86,66.27 -11.66,27.61 -17.49,57.98 -17.49,91.12l0 178.55 143.58 13.81 0 55.22 -377.36 0z" />
    <polygon
       id="7"
       class="fil5 str2"
       points="829.72,2950.12 829.72,2292.96 912.55,2292.96 912.55,2570 1170.26,2570 1170.26,2292.96 1253.1,2292.96 1253.1,2950.12 1170.26,2950.12 1170.26,2643.63 912.55,2643.63 912.55,2950.12 " />
    <path
       id="8"
       class="fil5 str2"
       d="M1543.94 2959.32c-48.48,0 -87.59,-11.96 -117.35,-35.89 -29.76,-23.93 -44.64,-60.13 -44.64,-108.61 0,-35.59 8.59,-65.19 25.77,-88.81 17.18,-23.63 42.49,-41.42 75.93,-53.39 33.44,-11.96 74.09,-18.56 121.95,-19.79l105.85 -2.76 0 -20.25c0,-44.17 -11.05,-74.39 -33.14,-90.65 -22.09,-16.26 -51.85,-24.39 -89.27,-24.39 -26.39,0 -51.55,3.37 -75.48,10.12 -23.93,6.75 -46.63,16.26 -68.11,28.53l-28.53 -62.58c23.32,-11.66 49.24,-21.79 77.78,-30.38 28.53,-8.59 61.51,-12.88 98.94,-12.88 61.97,0 109.68,13.96 143.12,41.87 33.44,27.92 50.16,71.34 50.16,130.24l0 330.42 -66.27 0 -9.2 -68.11 -3.68 0c-13.5,17.18 -28.38,31.45 -44.64,42.8 -16.26,11.35 -34.21,19.94 -53.85,25.77 -19.63,5.83 -41.41,8.74 -65.34,8.74zm13.8 -67.18c27.61,0 53.08,-5.07 76.39,-15.19 23.32,-10.13 42.04,-25.47 56.15,-46.02 14.11,-20.56 21.17,-46.48 21.17,-77.77l0 -44.18 -88.36 2.76c-39.27,1.23 -70.87,5.98 -94.8,14.27 -23.93,8.28 -41.26,19.63 -52,34.05 -10.74,14.42 -16.11,31.75 -16.11,52 0,28.23 8.9,48.63 26.69,61.21 17.8,12.58 41.42,18.87 70.87,18.87z" />
    <path
       id="9"
       class="fil5 str2"
       d="M1926.81 2950.12l0 -55.22 150.03 -13.81 0 -355.27 -135.3 -11.96 0 -57.07 201.57 0 11.04 90.2 3.68 0c17.18,-32.52 36.05,-57.22 56.61,-74.09 20.55,-16.88 47.7,-25.31 81.45,-25.31 20.86,0 39.42,1.84 55.68,5.52 16.26,3.68 31.14,8.59 44.64,14.73l-22.09 72.71c-9.81,-5.53 -21.47,-10.28 -34.97,-14.27 -13.5,-3.99 -27.92,-5.98 -43.26,-5.98 -26.38,0 -49.7,8.28 -69.95,24.85 -20.25,16.57 -36.2,38.65 -47.86,66.27 -11.66,27.61 -17.49,57.98 -17.49,91.12l0 178.55 143.58 13.81 0 55.22 -377.36 0z" />
    <path
       id="10"
       class="fil5 str2"
       d="M2724.79 2959.32c-36.2,0 -66.73,-7.21 -91.58,-21.63 -24.85,-14.41 -44.33,-31.14 -58.45,-50.16l-5.52 0 -7.36 62.59 -66.27 0 0 -699.5 80.08 0 0 169.36c0,17.18 -0.16,34.05 -0.47,50.62 -0.3,16.56 -1.38,33.44 -3.22,50.62l3.69 0c12.88,-19.64 31.6,-36.82 56.14,-51.54 24.54,-14.73 55.53,-22.09 92.96,-22.09 29.45,0 56.45,5.37 80.99,16.1 24.55,10.74 45.56,26.85 63.05,48.32 17.49,21.48 30.99,48.17 40.5,80.08 9.51,31.91 14.26,68.72 14.26,110.45 0,42.33 -4.75,79.46 -14.26,111.36 -9.51,31.91 -23.17,58.75 -40.96,80.54 -17.8,21.78 -38.81,38.04 -63.05,48.78 -24.23,10.73 -51.08,16.1 -80.53,16.1zm-15.65 -67.18c44.79,0 77.62,-16.26 98.48,-48.79 20.87,-32.52 31.3,-79.46 31.3,-140.81 0,-60.14 -10.43,-106.46 -31.3,-138.98 -20.86,-32.52 -53.99,-48.78 -99.4,-48.78 -42.34,0 -75.01,16.1 -98.02,48.32 -23.01,32.21 -34.51,78.08 -34.51,137.59 0,61.98 10.89,109.38 32.67,142.2 21.78,32.83 55.38,49.25 100.78,49.25z" />
    <path
       id="11"
       class="fil5 str2"
       d="M3251.25 2959.32c-31.91,0 -61.67,-5.21 -89.28,-15.64 -27.61,-10.43 -51.7,-26.39 -72.25,-47.86 -20.56,-21.48 -36.51,-48.32 -47.86,-80.54 -11.35,-32.21 -17.03,-70.1 -17.03,-113.67 0,-57.06 9.67,-104.31 28.99,-141.74 19.33,-37.42 45.87,-65.5 79.62,-84.21 33.75,-18.72 72.09,-28.07 115.05,-28.07 42.95,0 81.6,9.35 115.97,28.07 34.36,18.71 61.51,46.94 81.45,84.67 19.94,37.74 29.91,85.75 29.91,144.05 0,42.95 -5.67,80.38 -17.02,112.28 -11.36,31.91 -27,58.45 -46.94,79.62 -19.95,21.17 -43.57,36.97 -70.87,47.4 -27.31,10.43 -57.22,15.64 -89.74,15.64zm-0.92 -67.18c31.9,0 58.29,-7.67 79.15,-23.01 20.86,-15.34 36.51,-37.28 46.94,-65.81 10.43,-28.53 15.65,-62.13 15.65,-100.78 0,-39.27 -5.22,-72.87 -15.65,-100.79 -10.43,-27.92 -26.23,-49.39 -47.4,-64.42 -21.17,-15.04 -47.71,-22.55 -79.61,-22.55 -47.86,0 -83.61,16.72 -107.23,50.16 -23.62,33.44 -35.43,79.3 -35.43,137.6 0,38.65 5.37,72.25 16.1,100.78 10.74,28.53 26.69,50.47 47.86,65.81 21.17,15.34 47.71,23.01 79.62,23.01z" />
    <path
       id="12"
       class="fil5 str2"
       d="M3766.66 2959.32c-58.29,0 -101.39,-14.57 -129.31,-43.71 -27.92,-29.15 -41.88,-72.56 -41.88,-130.24l0 -328.58 82.83 0 0 315.69c0,39.27 8.13,69.03 24.39,89.28 16.26,20.25 44.34,30.38 84.22,30.38 34.36,0 61.36,-7.21 80.99,-21.63 19.64,-14.42 33.6,-35.13 41.88,-62.13 8.29,-27 12.43,-59.52 12.43,-97.56l0 -254.03 82.83 0 0 493.33 -66.27 0 -11.96 -66.27 -4.6 0c-11.66,18.41 -25.16,33.14 -40.5,44.18 -15.34,11.05 -32.52,19.02 -51.54,23.93 -19.02,4.91 -40.19,7.36 -63.51,7.36z" />
    <path
       id="13"
       class="fil5 str2"
       d="M4135.73 2950.12l0 -55.22 150.03 -13.81 0 -355.27 -135.3 -11.96 0 -57.07 201.57 0 11.04 90.2 3.68 0c17.18,-32.52 36.05,-57.22 56.61,-74.09 20.55,-16.88 47.7,-25.31 81.45,-25.31 20.86,0 39.42,1.84 55.68,5.52 16.26,3.68 31.14,8.59 44.64,14.73l-22.09 72.71c-9.81,-5.53 -21.47,-10.28 -34.97,-14.27 -13.5,-3.99 -27.92,-5.98 -43.26,-5.98 -26.38,0 -49.7,8.28 -69.95,24.85 -20.25,16.57 -36.2,38.65 -47.86,66.27 -11.66,27.61 -17.49,57.98 -17.49,91.12l0 178.55 143.58 13.81 0 55.22 -377.36 0z" />
  </g>
  <g
     id="g295"
     transform="matrix(1.8588436,0,0,1.8531755,1621.3501,3214.2578)">
    <g
       transform="translate(66.11688,-138.1745)"
       style="display:inline"
       inkscape:label="asd"
       id="layer2" />
    <g
       transform="translate(66.11688,-138.1745)"
       style="display:inline"
       id="layer1"
       inkscape:label="Layer 1">
      <path
         style="display:inline;opacity:1;fill:url(#linearGradient6455);fill-opacity:1;fill-rule:evenodd;stroke:none;stroke-width:4;stroke-linecap:butt;stroke-linejoin:round;stroke-miterlimit:4;stroke-dasharray:none;stroke-opacity:1"
         d="m 972.33545,785.8284 c 71.67865,48.57903 88.16765,128.43583 83.58535,145.33323 -4.5237,16.6813 -40.6328,39.928 -39.3109,0.1049 6.1629,43.266 -50.07455,53.733 -48.92855,21.4225 -5.0295,24.2732 -25.1862,34.0402 -63.0758,22.2645 -7.3805,21.6664 -64.61695,34.19087 -70.41815,12.1547 6.99874,31.82147 -107.85635,34.40667 -106.55606,-10.6881 -6.29138,20.1993 -29.98588,16.5938 -57.31617,-23.2755 -27.45345,-40.049 37.09288,-144.2258 63.95815,-151.10106 -26.29281,6.48156 -50.27533,44.67389 -68.73407,95.38676 6.74857,2.3854 -52.34603,20.7284 -86.4496,-1.9906 -34.80634,-23.1871 -56.21882,-50.51674 -14.73387,-130.44816 8.67785,-50.41681 -19.29586,-76.15879 52.85714,-170.51994 9.24672,-30.82897 19.5083,-53.5728 44.53082,-71.25527 0,0 -14.25585,-8.80613 -14.53082,-24.6026 -0.27496,-15.79646 14.07075,-78.81346 31.84699,-112.19362 17.77625,-33.38016 62.27021,-100.08648 73.8673,-128.22479 11.59709,-28.13832 21.85355,-69.52071 25.95939,-98.29659 4.10585,-28.77588 25.63357,-20.92394 37.31617,-9.1929 11.6826,11.73104 11.96594,24.702 6.79622,58.98985 -5.16972,34.28785 -12.86765,44.21392 -42.92893,95.05076 -30.06127,50.83684 -59.42733,71.40503 -71.25525,109.30674 -11.82792,37.90171 -20.74682,64.37245 -5.46872,90.34175 43.26184,-19.47933 69.67303,-10.87426 98.23232,-5.84933 10.18306,-2.25595 11.18268,-13.15372 13.59583,-21.35708 20.19218,-30.56562 16.9118,-120.74099 37.50791,-164.21729 40.9286,12.88086 72.9891,36.65019 89.8267,73.6222 50.7206,-46.42293 68.73235,-50.07279 85.12245,-51.60189 44.3366,55.7659 56.1291,119.04198 0.7622,197.81639 -3.2671,16.38178 -6.3665,18.72252 -4.3431,35.41319 -8.729,6.84719 -23.6573,17.31157 -23.562,26.77042 -2.48455,65.74681 -25.88885,131.97141 -28.15295,190.83683 z"
         id="path6431"
         sodipodi:nodetypes="czccccczcczccczzzzzzzzcccccccccc"
         inkscape:connector-curvature="0" />
      <text
         transform="scale(1.017172,0.983118)"
         id="text1933"
         y="698.71637"
         x="-67.448792"
         style="font-style:normal;font-variant:normal;font-weight:normal;font-stretch:normal;line-height:0%;font-family:sans-serif;writing-mode:lr-tb;text-anchor:start;fill:url(#linearGradient6447);fill-opacity:1;stroke:#000000;stroke-width:7.99999952;stroke-linecap:butt;stroke-linejoin:round;stroke-miterlimit:4;stroke-dasharray:none;stroke-dashoffset:0;stroke-opacity:1"
         xml:space="preserve"><tspan
           style="font-weight:bold;font-size:283.43588257px;line-height:1;font-family:sans-serif;fill:url(#linearGradient6447);fill-opacity:1;stroke:#000000;stroke-width:7.99999952;stroke-linejoin:round;stroke-miterlimit:4;stroke-dasharray:none;stroke-dashoffset:0;stroke-opacity:1"
           y="698.71637"
           x="-67.448792"
           id="tspan1935"
           sodipodi:role="line">XCB</tspan></text>
      <g
         id="g3047" />
      <path
         sodipodi:nodetypes="ccsccccczc"
         id="path4990"
         d="m 943.28431,387.16656 c -15.77684,-4.07203 -30.1054,-8.31084 -41.42825,-1.56603 0,0 -0.87979,3.40732 1.15713,3.31687 6.29005,-0.27391 13.27347,0.50123 7.52352,2.20206 -15.29634,6.20173 -5.38062,20.58052 -2.23457,33.90272 -13.10341,7.91831 -1.02473,16.5842 1.53537,18.16779 9.9199,-13.33821 7.94616,-31.84757 31.18438,-39.3952 l 0.27114,-3.52342 c -5.81805,-0.78986 -10.00618,-2.05643 -5.53425,-3.07074 4.35632,-0.98809 7.52553,-10.03405 7.52553,-10.03405 z"
         style="display:inline;fill:#000000;fill-opacity:1;fill-rule:evenodd;stroke:none;stroke-width:0.25000001pt;stroke-linecap:butt;stroke-linejoin:miter;stroke-opacity:1"
         inkscape:connector-curvature="0" />
      <path
         sodipodi:nodetypes="cccccccccccccccccccc"
         id="path2814"
         d="m 844.81588,611.95391 c 9.50548,-7.3083 -8.60324,-6.24635 -4.34362,-21.20708 -2.52231,-0.60929 -5.82589,2.14725 -9.70927,5.62116 2.3677,-4.9398 3.29252,-9.87961 4.34362,-14.81941 -1.99008,-0.64173 -4.77141,1.88155 -7.40969,3.83261 3.82238,-5.28933 4.9194,-8.39838 5.36564,-10.9868 -3.8326,0.02 -6.89869,7.68698 -11.49781,8.68723 1.34299,-5.59229 10.66375,-16.32895 11.49781,-23.25113 -5.47508,1.94271 -8.9133,6.26535 -12.51984,9.45375 6.75505,-8.02789 6.98779,-16.94342 12.26433,-20.95156 l -9.70927,-4.08812 c -21.89303,10.92272 -31.39845,23.57543 -32.19387,38.58156 5.35045,2.09177 7.88036,-5.48377 11.24231,-12.00883 -1.45562,8.18138 -0.84394,14.98457 1.78854,20.44056 7.46509,3.52675 8.53173,-11.53665 12.00883,-8.43174 -5.28354,9.7683 -5.13634,11.96046 -5.11014,16.86347 4.15,-0.22457 8.3158,-0.44123 13.79738,0 -2.67909,1.72654 -3.61848,4.32293 -3.5771,7.4097 7.22392,-2.23779 11.26778,0.83496 17.62998,-1.27753 -1.41177,12.41153 3.06486,7.15786 6.13217,6.13216 z"
         style="fill:#000000;fill-opacity:1;fill-rule:evenodd;stroke:none;stroke-width:0.25000001pt;stroke-linecap:butt;stroke-linejoin:miter;stroke-opacity:1"
         inkscape:connector-curvature="0" />
      <path
         sodipodi:nodetypes="cccccccccccsc"
         id="path4596"
         d="m 981.74033,701.37305 -10.6436,68.3996 c -2.81094,-2.9085 -2.61412,6.7729 -4.95051,8.2509 -2.5047,-7.6164 -13.86756,-3.8168 -16.3367,-9.406 -0.66006,-6.9993 -1.32013,-13.7257 -1.9802,-14.6865 -1.84296,4.3449 0.56663,16.6999 -3.30034,17.4918 -2.50115,-11.1371 -21.13911,-2.6022 -21.2872,-24.0925 11.18861,-0.9452 20.16818,-5.1534 23.92747,-20.9572 3.51688,-1.806 4.95399,3.0712 3.63038,14.0265 5.34841,-3.6261 -0.16961,-11.5605 8.08583,-6.9307 -1.6216,-16.0307 5.12127,-8.1964 9.571,-22.9374 0.9771,-0.6005 2.69563,-1.02 2.38711,0.8413 -3.64696,22.0016 6.20373,1.8852 10.89676,-9.9998 z"
         style="display:inline;fill:#000000;fill-opacity:1;fill-rule:evenodd;stroke:none;stroke-width:0.25000001pt;stroke-linecap:butt;stroke-linejoin:miter;stroke-opacity:1"
         inkscape:connector-curvature="0" />
      <g
         transform="translate(594.2666,-134.447)"
         id="g2865">
        <g
           id="g2838">
          <path
             sodipodi:nodetypes="czzzc"
             id="path2834"
             d="m 368.70568,613.95598 c -10.73741,-8.30159 -20.61385,-10.87418 -30.80965,2.52538 -10.19581,13.39956 -8.23082,19.95511 -5.55585,30.30457 2.74915,10.63643 20.65941,12.41962 29.04189,3.283 8.38247,-9.13662 12.45196,-17.9044 7.32361,-36.11295 z"
             style="fill:#000000;fill-opacity:1;fill-rule:evenodd;stroke:#000000;stroke-width:2;stroke-linecap:butt;stroke-linejoin:miter;stroke-miterlimit:4;stroke-dasharray:none;stroke-opacity:1"
             inkscape:connector-curvature="0" />
          <path
             sodipodi:nodetypes="cczzc"
             id="path2836"
             d="m 271.4931,588.70112 c -8.18605,-6.77174 -18.27993,-7.43702 -27.23755,2.85453 -8.64841,13.6468 -7.51627,21.84539 -3.04959,29.76269 4.46669,7.91729 16.07777,9.00085 23.44311,0.8782 7.36533,-8.12264 9.11894,-16.36733 6.84403,-33.49542 z"
             style="fill:#000000;fill-opacity:1;fill-rule:evenodd;stroke:#000000;stroke-width:2;stroke-linecap:butt;stroke-linejoin:miter;stroke-miterlimit:4;stroke-dasharray:none;stroke-opacity:1"
             inkscape:connector-curvature="0" />
        </g>
      </g>
      <path
         sodipodi:nodetypes="cc"
         id="path2893"
         d="m 616.45516,674.74987 c 17.25311,36.41669 52.40547,63.02549 117.14285,46.42857"
         style="fill:none;fill-opacity:0.75;fill-rule:evenodd;stroke:#000000;stroke-width:4;stroke-linecap:round;stroke-linejoin:miter;stroke-miterlimit:4;stroke-dasharray:none;stroke-opacity:1;marker-start:none"
         inkscape:connector-curvature="0" />
      <path
         sodipodi:nodetypes="cc"
         id="path2897"
         d="m 769.3123,641.17845 c -27.04639,47.95686 -36.35233,103.30558 -40.71429,160.71428"
         style="fill:none;fill-opacity:0.75;fill-rule:evenodd;stroke:#000000;stroke-width:4;stroke-linecap:round;stroke-linejoin:miter;stroke-miterlimit:4;stroke-dasharray:none;stroke-opacity:1"
         inkscape:connector-curvature="0" />
      <path
         sodipodi:nodetypes="cc"
         id="path2901"
         d="m 849.83524,563.85673 c -7.59894,-6.34228 -41.11222,-26.0884 -45.96194,-64.14468"
         style="display:inline;fill:none;fill-opacity:0.75;fill-rule:evenodd;stroke:#000000;stroke-width:3;stroke-linecap:round;stroke-linejoin:miter;stroke-miterlimit:4;stroke-dasharray:none;stroke-opacity:1"
         inkscape:connector-curvature="0" />
      <g
         transform="translate(499.3123,-94.04088)"
         id="g2928">
        <path
           style="display:inline;fill:url(#radialGradient6487);fill-opacity:1;fill-rule:nonzero;stroke:none;stroke-width:0.25000001pt;stroke-linecap:butt;stroke-linejoin:miter;stroke-opacity:1"
           d="M 498.0199,685.48523 C 431.57337,605.0185 361.32379,596.18377 324.25282,633.74757 c 26.87127,27.36684 25.48843,17.95156 27.52754,26.16459 -1.84714,17.9042 -4.78243,22.0891 -6.62957,36.21641 19.00995,4.99201 22.79511,49.14154 34.0401,69.66346 17.67456,-5.42238 20.38579,28.0599 28.49869,47.49782 14.49011,10.85577 44.40159,-22.74432 53.03923,-53.83086 9.4226,-43.071 11.95159,-56.76772 37.29109,-73.97376 z"
           id="path2917"
           sodipodi:nodetypes="cccccccc"
           inkscape:connector-curvature="0" />
        <path
           style="display:inline;fill:url(#linearGradient6463);fill-opacity:1;fill-rule:evenodd;stroke:none;stroke-width:0.25000001pt;stroke-linecap:butt;stroke-linejoin:miter;stroke-opacity:1"
           d="m 475.76978,881.37005 c -51.61348,-2.98611 -71.74135,20.41103 -102.91193,41.9564 -47.67116,-31.36493 -96.67282,-36.1198 -146.4516,-25.33217 15.34493,-57.85786 -72.09181,-59.57148 -161.492569,-41.9564 -12.566816,26.26098 -19.774949,48.05638 -22.957278,66.49695 1.377283,73.79992 74.234957,90.66077 127.521667,69.28832 -27.28341,54.31335 46.5155,113.52175 57.71981,79.53815 -1.81255,38.7291 110.96429,46.6426 106.86805,9.825 13.69004,29.4203 73.87374,-2.7371 69.44015,-13.064 2.9316,0.7651 53.76057,21.7684 62.76496,-18.5026 9.18363,33.9653 57.35089,10.1905 49.87716,-22.5531 -9.38101,22.993 39.70732,33.9333 41.1595,-15.0775 -7.40553,-60.85127 -51.57163,-111.84025 -81.53792,-130.61905 z"
           id="path2922"
           sodipodi:nodetypes="ccccccccccccc"
           inkscape:connector-curvature="0" />
        <path
           transform="translate(94.95434,-40.4061)"
           sodipodi:nodetypes="cccz"
           id="path2843"
           d="m 363.89532,620.77451 c 0.28174,-5.53374 -3.8657,-6.21379 -11.09954,-5.80838 -9.57434,17.54896 -1.23,25.29184 9.09137,24.74874 2.11211,-6.31345 1.72644,-13.40662 2.00817,-18.94036 z"
           style="display:inline;opacity:1;fill:url(#linearGradient2875);fill-opacity:1;fill-rule:evenodd;stroke:none;stroke-width:0.25000001pt;stroke-linecap:butt;stroke-linejoin:miter;stroke-opacity:1"
           inkscape:connector-curvature="0" />
        <path
           transform="translate(94.95434,-40.4061)"
           sodipodi:nodetypes="cccz"
           id="path2859"
           d="m 266.94737,595.50737 c -0.93555,-4.45054 -0.7082,-5.77825 -10.35406,-5.80838 -9.57434,17.54896 -1.23,25.29184 9.09137,24.74874 2.11211,-6.31345 2.19824,-14.48981 1.26269,-18.94036 z"
           style="display:inline;opacity:1;fill:#ffffff;fill-opacity:1;fill-rule:evenodd;stroke:none;stroke-width:0.25000001pt;stroke-linecap:butt;stroke-linejoin:miter;stroke-opacity:1"
           inkscape:connector-curvature="0" />
        <path
           style="fill:#000000;fill-opacity:1;fill-rule:evenodd;stroke:#000000;stroke-width:1;stroke-linecap:butt;stroke-linejoin:miter;stroke-miterlimit:4;stroke-dasharray:none;stroke-opacity:1"
           d="m 382.05862,611.70679 c 2.27284,0.37881 13.13198,5.80838 13.13198,5.80838 0.38692,-4.20441 3.63937,-8.14831 -10.10152,-13.63706 -10.26815,-0.95452 -15.79673,-1.76664 -16.66752,1.51523 -0.87079,3.28187 9.1984,12.87421 11.61676,12.62691 2.1683,-0.22173 -0.22508,-6.68769 2.0203,-6.31346 z"
           id="path2904"
           sodipodi:nodetypes="ccczzz"
           inkscape:connector-curvature="0" />
        <path
           style="display:inline;fill:#000000;fill-opacity:1;fill-rule:evenodd;stroke:none;stroke-width:3;stroke-linecap:butt;stroke-linejoin:round;stroke-miterlimit:4;stroke-dasharray:none;stroke-opacity:1"
           d="m 498.87779,636.6576 c 29.17475,3.46614 112.11698,25.94738 160.56079,36.42045 -42.2043,-12.38095 -112.48441,-30.49115 -158.34182,-42.8721"
           id="path2908"
           sodipodi:nodetypes="ccc"
           inkscape:connector-curvature="0" />
        <path
           style="display:inline;fill:#000000;fill-opacity:1;fill-rule:evenodd;stroke:none;stroke-width:3;stroke-linecap:butt;stroke-linejoin:round;stroke-miterlimit:4;stroke-dasharray:none;stroke-opacity:1"
           d="m 518.6987,668.31706 c 0.89291,-2.61793 78.30443,16.42594 130.0359,52.5987 -7.77334,-13.79804 -62.50095,-46.79227 -126.46447,-62.5987"
           id="path2910"
           sodipodi:nodetypes="ccc"
           inkscape:connector-curvature="0" />
        <path
           style="display:inline;fill:#000000;fill-opacity:1;fill-rule:evenodd;stroke:none;stroke-width:3;stroke-linecap:butt;stroke-linejoin:round;stroke-miterlimit:4;stroke-dasharray:none;stroke-opacity:1"
           d="m 312.38212,583.27981 c -3.13032,-6.34694 -68.23238,-12.98495 -79.83132,-18.11198 21.91548,-5.31276 58.96542,7.65495 80.50253,10.2333"
           id="path2912"
           sodipodi:nodetypes="ccc"
           inkscape:connector-curvature="0" />
        <path
           transform="translate(94.95434,-40.4061)"
           style="display:inline;opacity:1;fill:none;fill-opacity:1;fill-rule:evenodd;stroke:#000000;stroke-width:4;stroke-linecap:butt;stroke-linejoin:round;stroke-miterlimit:4;stroke-dasharray:none;stroke-opacity:1"
           d="m 377.56128,920.34187 c 71.6787,48.57903 88.16771,128.43583 83.58537,145.33323 -4.52374,16.6813 -40.63282,39.928 -39.3109,0.1049 6.16287,43.266 -50.0746,53.733 -48.92861,21.4225 -5.02946,24.2732 -25.18616,34.0402 -63.0758,22.2645 -7.3805,21.6664 -64.61694,34.1909 -70.41814,12.1547 6.99874,31.8215 -107.85635,34.4067 -106.55606,-10.6881 -6.29138,20.1993 -29.98588,16.5938 -57.316169,-23.2755 -27.453454,-40.049 37.092879,-144.2258 63.958149,-151.10106 -26.29281,6.48156 -50.275334,44.67389 -68.734071,95.38676 6.748568,2.3854 -52.346028,20.7284 -86.449599,-1.9906 -34.806345,-23.1871 -56.21882,-50.51674 -14.733869,-130.44816 8.677851,-50.41681 -19.295864,-76.15879 52.857143,-170.51994 9.24672,-30.82897 19.508291,-53.5728 44.530818,-71.25527 0,0 -14.255856,-8.80613 -14.530818,-24.6026 -0.274963,-15.79646 14.070749,-78.81346 31.84699,-112.19362 17.776246,-33.38016 62.270206,-100.08648 73.867296,-128.22479 11.59709,-28.13832 21.85355,-69.52071 25.95939,-98.29659 4.10585,-28.77588 25.63357,-20.92394 37.31617,-9.1929 11.6826,11.73104 11.96594,24.702 6.79622,58.98985 -5.16972,34.28785 -12.86765,44.21392 -42.92893,95.05076 -30.06127,50.83684 -59.42733,71.40503 -71.25525,109.30674 -11.82792,37.90171 -20.746818,64.37245 -5.46872,90.34175 43.26184,-19.47933 69.67303,-10.87426 98.23232,-5.84933 10.18306,-2.25595 11.18268,-13.15372 13.59583,-21.35708 20.19218,-30.56562 16.9118,-120.74099 37.50786,-164.21729 40.92867,12.88086 72.98918,36.65019 89.8267,73.6222 50.72064,-46.42293 68.73247,-50.07279 85.12254,-51.60189 44.33664,55.7659 56.12911,119.04198 0.76221,197.81639 -3.26715,16.38178 -6.36646,18.72252 -4.34314,35.41319 -8.729,6.84719 -23.65725,17.31157 -23.56192,26.77042 -2.48461,65.74681 -25.88895,131.97141 -28.15301,190.83683 z"
           id="path1937"
           sodipodi:nodetypes="czccccczcczccczzzzzzzzcccccccccc"
           inkscape:connector-curvature="0" />
      </g>
      <path
         sodipodi:nodetypes="cccccccccccc"
         id="path1922"
         d="m 998.7376,622.68824 c -3.60018,-0.0465 -6.26354,-1.96655 -10.87022,0 -0.5657,1.82557 -2.2727,3.41937 -2.50851,6.27128 -16.22281,-7.56536 -5.78439,-14.31778 3.76277,-26.33937 0.55817,-2.08824 0.96107,-4.64231 0.41808,-10.03404 13.65748,-8.05085 13.30908,-20.60977 23.41278,-19.23191 l -1.8814,-6.27128 c -8.2223,-4.5778 -18.32606,-6.56847 -26.5484,-6.68936 15.5758,-17.34685 29.2721,-22.47739 42.6447,-25.50319 l -3.6057,32.67167 -23.98793,22.09748 z"
         style="display:inline;fill:#000000;fill-opacity:1;fill-rule:evenodd;stroke:none;stroke-width:0.25000001pt;stroke-linecap:butt;stroke-linejoin:miter;stroke-opacity:1"
         inkscape:connector-curvature="0" />
      <path
         sodipodi:nodetypes="ccc"
         id="path2895"
         d="m 874.3123,831.17845 c -11.87405,-58.76726 22.05983,-99.19718 11.42858,-108.57143 15.33362,20.14354 61.79711,-11.8385 76.42857,-57.14286"
         style="fill:none;fill-opacity:0.75;fill-rule:evenodd;stroke:#000000;stroke-width:4;stroke-linecap:round;stroke-linejoin:miter;stroke-miterlimit:4;stroke-dasharray:none;stroke-opacity:1"
         inkscape:connector-curvature="0" />
      <path
         sodipodi:nodetypes="cc"
         id="path2899"
         d="m 729.06489,797.65199 c 5.25512,-39.15093 -42.8203,-44.501 -79.0383,-45.47592"
         style="fill:none;fill-opacity:0.75;fill-rule:evenodd;stroke:#000000;stroke-width:4;stroke-linecap:round;stroke-linejoin:miter;stroke-miterlimit:4;stroke-dasharray:none;stroke-opacity:1"
         inkscape:connector-curvature="0" />
      <path
         sodipodi:nodetypes="cc"
         transform="translate(-107.1754,138.1745)"
         id="path5484"
         d="M 1010.857,838.03849 C 1034.6529,774.54063 997.05105,743.26464 982.51044,701.7926"
         style="fill:none;fill-opacity:0.75;fill-rule:evenodd;stroke:#000000;stroke-width:4;stroke-linecap:round;stroke-linejoin:miter;stroke-miterlimit:4;stroke-dasharray:none;stroke-opacity:1"
         inkscape:connector-curvature="0" />
      <path
         sodipodi:nodetypes="cccccccccccccccsc"
         id="path5486"
         d="m 757.90058,657.7343 c -1.68301,16.14575 -3.71421,32.40757 -3.05251,47.77175 4.08191,-3.35865 6.19481,-11.7515 8.24178,-23.65693 3.18335,1.08009 6.07043,5.34391 0.45787,14.95728 12.37696,-4.03872 7.36952,3.38917 7.47865,9.46278 9.70401,-11.29907 8.04612,-7.60798 7.93652,5.79976 14.01257,-15.34326 9.67316,16.15439 25.48844,7.63127 1.27242,6.61431 4.19823,14.88201 0.91575,16.94142 -1.76762,0.72762 -3.9411,-2.19758 -6.10502,-5.03664 -1.18113,7.00607 -6.47961,8.96086 -7.93652,-2.89988 -4.73714,16.53531 -6.22409,3.81892 -8.24177,-4.12088 -7.52545,19.76977 -9.27975,13.85793 -8.69965,-2.44201 -4.01656,11.77001 -8.94594,35.24083 -8.69964,-7.63127 -5.01643,33.08623 -7.68696,29.81107 -9.46278,12.66791 -3.1473,29.2881 -10.49736,29.99229 -7.69448,-8.76287 -1.40091,-6.33287 -4.66948,-1.54739 -7.59126,2.76631 -2.5131,3.7103 14.21053,-45.16354 16.96462,-63.448 z"
         style="fill:#000000;fill-opacity:1;fill-rule:evenodd;stroke:none;stroke-width:0.25000001pt;stroke-linecap:butt;stroke-linejoin:miter;stroke-opacity:1"
         inkscape:connector-curvature="0" />
      <path
         sodipodi:nodetypes="cccccczcccsc"
         id="path5488"
         d="m 772.20842,199.42739 c 2.87421,-16.98337 2.78724,-32.97932 7.9933,-48.86756 3.36939,-4.78943 4.18553,-11.99443 15.49237,-10.67813 5.87685,0.34232 12.2228,0.98921 19.66083,10.07412 12.17586,10.79815 12.93726,27.15518 8.11151,50.87099 -8.5141,-7.92259 -15.90829,-2.51767 -22.97008,-4.24166 -2.39698,-2.13232 -0.99337,-38.89986 -3.50324,-39.86445 -2.50987,-0.96459 -3.40689,6.38916 -2.41603,16.06658 7.30929,0.18683 4.41134,1.7905 6.28167,2.89924 -8.68014,1.51879 -9.0331,9.67761 -10.50972,15.58337 0.39385,2.59361 -3.5369,2.34619 -3.90794,-0.14399 -3.49013,-23.42338 -1.81576,-2.89225 -14.23267,8.30149 z"
         style="fill:#000000;fill-opacity:1;fill-rule:nonzero;stroke:none;stroke-width:0.25000001pt;stroke-linecap:butt;stroke-linejoin:miter;stroke-opacity:1"
         inkscape:connector-curvature="0" />
      <path
         sodipodi:nodetypes="cczzcccccccczcccccccccccccccccccccccc"
         id="path5490"
         d="m 805.18436,509.18705 c -19.11037,-3.12065 -37.48218,-11.57261 -47.60299,-10.26566 -27.65539,-0.35499 -42.6945,1.54673 -57.91332,5.04548 -15.17235,3.48807 -41.9502,16.6745 -55.93899,34.00214 -13.98879,17.32763 -16.19504,22.57584 -21.7175,40.36382 l 1.97432,1.09685 c 6.94975,-1.00201 26.86518,-3.58873 28.29855,-10.31033 0.63958,-1.51336 1.01707,-3.00801 -6.36169,-3.94863 8.69807,-1.74534 17.17268,-3.59382 18.42697,-8.77475 -5.61524,-2.03521 -12.94046,1.23393 -18.2076,-0.6581 2.13386,-5.76673 19.65673,-5.42109 40.14446,-23.91118 -8.07874,-0.35275 -16.43264,4.37486 -19.74318,0.6581 17.54636,-2.7818 31.75861,-14.46591 37.51203,-17.76885 5.67729,-3.25924 14.28946,-2.04546 20.18192,-1.53558 0.55977,3.14848 -3.12975,2.25219 -2.19369,7.01979 16.94831,0.15017 35.82862,-4.52964 50.67415,0.87748 -21.90776,1.32304 -40.02044,-2.36937 -46.28678,7.01979 23.56559,0.23521 41.56509,-5.20629 57.03584,-0.43874 -27.31417,2.06911 -57.45163,-1.49292 -60.76511,11.1878 0.63378,1.90117 3.48004,2.47485 7.0198,2.63243 12.89424,-1.13834 26.84463,-6.14923 38.17014,-1.53558 -12.09818,1.17727 -24.84798,1.05131 -35.31835,5.48421 2.62316,17.705 16.88624,22.01513 25.66613,35.31835 -1.65314,2.9027 -7.2978,0.0804 -6.36169,4.38737 3.58192,4.14454 12.35826,3.96041 19.08507,5.48421 2.78933,-1.24309 2.1744,-2.48617 1.53558,-3.72926 -4.66409,-0.21614 -8.10741,-0.89008 -8.11664,-2.85179 4.58033,0.19296 8.5468,-0.22794 9.65222,-3.5099 -2.86044,-0.6699 -5.16784,-1.75459 -5.70358,-4.16801 0.26311,-4.45762 5.03386,-5.35724 7.89727,-10.52969 -0.67122,-1.31621 -2.07107,-2.63242 -3.29053,-3.94863 9.37473,-2.07275 8.39684,-15.63923 21.93686,-16.45265 -3.41978,-0.79653 -6.66937,-2.01212 -7.23917,-3.94864 0.52675,-0.51186 1.88641,-1.02372 4.16801,-1.53557 -1.5652,-2.36925 -3.37111,-4.77861 -1.53559,-6.58106 13.60495,-5.64273 23.50593,-7.41678 30.67667,6.24312 z"
         style="display:inline;fill:#000000;fill-opacity:1;fill-rule:evenodd;stroke:none;stroke-width:0.25000001pt;stroke-linecap:butt;stroke-linejoin:miter;stroke-opacity:1"
         inkscape:connector-curvature="0" />
      <path
         sodipodi:nodetypes="cccccczzzzzc"
         id="path5493"
         d="m 765.22449,227.09372 -24.41074,57.52348 c 1.83014,-0.74221 1.10943,4.40833 4.18147,4.97256 3.65408,-0.22708 5.16091,-15.22951 10.96223,-20.22928 0.81037,6.25301 -8.15105,15.19268 -4.63352,24.41075 3.98299,-5.24732 7.34292,-14.20871 10.51019,-21.3594 3.86377,5.80159 -6.28496,17.57944 -3.05134,18.53408 3.23361,0.95465 4.65173,-10.73113 12.09235,-6.89377 7.52974,3.88331 6.04381,-32.44989 3.84243,-34.24286 -2.14498,-1.74704 -6.21569,6.58299 -7.68486,5.08557 -1.41486,-1.44207 8.81817,-21.97438 5.42461,-23.28062 -3.25781,-1.25398 -7.87965,13.4167 -7.23282,-4.52051 z"
         style="fill:#000000;fill-opacity:1;fill-rule:evenodd;stroke:none;stroke-width:0.25000001pt;stroke-linecap:butt;stroke-linejoin:miter;stroke-opacity:1"
         inkscape:connector-curvature="0" />
      <path
         sodipodi:nodetypes="ccccccccc"
         id="path5514"
         d="m 735.21793,363.67039 -10.49246,12.69176 c -3.64673,-3.24053 -11.56103,22.543 -15.52862,17.81454 -1.59697,-1.39906 -1.37807,-4.63614 1.65783,-10.72459 -5.0593,-1.41446 -8.02885,-0.54924 -10.88464,2.00032 0.3388,-14.73777 7.64217,-25.95075 21.57153,-34.13223 -1.78239,6.62795 -0.9088,11.45019 2.79172,14.35052 6.63475,-2.27279 9.08349,-16.28281 14.46385,-17.20339 2.8398,7.01452 -3.42809,9.75605 -3.57921,15.20307 z"
         style="fill:#000000;fill-opacity:1;fill-rule:evenodd;stroke:none;stroke-width:0.25000001pt;stroke-linecap:butt;stroke-linejoin:miter;stroke-opacity:1"
         inkscape:connector-curvature="0" />
      <path
         sodipodi:nodetypes="ccczcc"
         id="path5516"
         d="m 672.08907,401.43029 -21.8642,61.01383 c 19.0009,3.56495 22.5831,-4.14599 28.1602,-15.11037 -7.8653,6.47274 -4.7311,-6.56952 -7.784,-6.52493 -3.0534,0.0446 -1.5091,8.19471 -4.8079,9.04333 0.2457,-15.5385 1.7766,-30.74656 6.2959,-48.42186 z"
         style="fill:#000000;fill-opacity:1;fill-rule:evenodd;stroke:none;stroke-width:0.25000001pt;stroke-linecap:butt;stroke-linejoin:miter;stroke-opacity:1"
         inkscape:connector-curvature="0" />
      <path
         sodipodi:nodetypes="cc"
         transform="translate(-107.1754,138.1745)"
         id="path5519"
         d="m 818.70714,588.02768 c 0.38617,13.25547 -0.76185,26.51095 5.2171,39.76642"
         style="fill:none;fill-opacity:0.75;fill-rule:evenodd;stroke:#000000;stroke-width:4;stroke-linecap:butt;stroke-linejoin:miter;stroke-miterlimit:4;stroke-dasharray:none;stroke-opacity:1"
         inkscape:connector-curvature="0" />
      <path
         sodipodi:nodetypes="cc"
         transform="translate(-107.1754,138.1745)"
         id="path5521"
         d="m 800.53275,618.47024 c 2.09602,-10.46131 1.93357,-21.43573 -1.46974,-31.16379"
         style="fill:none;fill-opacity:0.75;fill-rule:evenodd;stroke:#000000;stroke-width:4;stroke-linecap:butt;stroke-linejoin:miter;stroke-miterlimit:4;stroke-dasharray:none;stroke-opacity:1"
         inkscape:connector-curvature="0" />
    </g>
  </g>
</svg>
